<svg
  xmlns="http://www.w3.org/2000/svg"
  xmlns:xlink="http://www.w3.org/1999/xlink"
  viewBox="5 10 80 80"
  class="logo"
>
  <defs>
    <style>
      .a,
      .af,
      .b,
      .c {
        fill: none;
      }
      .b {
        stroke: #626262;
        stroke-width: 0.25px;
      }
      .af,
      .b,
      .c,
      .d {
        stroke-miterlimit: 10;
      }
      .c {
        stroke: #465258;
        stroke-width: 1.5px;
      }
      .d {
        fill: #7b7561;
        stroke: #273433;
        stroke-width: 3px;
      }
      .e {
        fill: #d9bb80;
        fill-opacity: 0.25;
      }
      .f {
        clip-path: url(#a);
      }
      .g {
        fill: #232323;
      }
      .h {
        fill: #0e0e0e;
      }
      .i {
        fill: #1d1d1d;
      }
      .j {
        fill: #1b1b1b;
      }
      .k {
        fill: #1c1c1c;
      }
      .l {
        fill: #6e6e6e;
      }
      .m {
        fill: #919191;
      }
      .n {
        fill: #2f2f2f;
      }
      .o {
        fill: #6d6d6d;
      }
      .p {
        fill: #6c6c6c;
      }
      .q {
        fill: #656565;
      }
      .r {
        fill: #4e4e4e;
      }
      .s {
        fill: #131313;
      }
      .t {
        fill: #686868;
      }
      .u {
        fill: #8b8b8b;
      }
      .v {
        fill: #303030;
      }
      .w {
        fill: #616161;
      }
      .x {
        fill: #323232;
      }
      .y {
        fill: #646464;
      }
      .z {
        fill: #696969;
      }
      .aa {
        fill: #6b6b6b;
      }
      .ab {
        fill: #676767;
      }
      .ac {
        fill: #909090;
      }
      .ad {
        fill: #515151;
      }
      .ae {
        fill: #6a6a6a;
      }
      .af {
        stroke: #2f2f2f;
        stroke-width: 0.75px;
      }
    </style>
    <clipPath id="a" transform="translate(-0.16 -0.17)">
      <circle class="a" cx="44.81" cy="44.82" r="40.02"></circle>
    </clipPath>
  </defs>
  <g class="f">
    <path
      class="g"
      d="M62.94,82.34l-.2.2a.12.12,0,0,1-.14,0,9.33,9.33,0,0,1-1.47-2.1,29.33,29.33,0,0,1-1.43-2.79.5.5,0,0,1,.13-.5c.22,0,.21.19.28.32l.2.41a1.31,1.31,0,0,0,.31.71c.29.19.33.54.5.81a2.11,2.11,0,0,0,.61,1.11,8.85,8.85,0,0,0,1,1.48C62.84,82.1,63,82.19,62.94,82.34Z"
      transform="translate(-0.16 -0.17)"
    ></path>
    <path
      class="h"
      d="M60.11,77.48a.31.31,0,0,1-.21-.3.15.15,0,0,1,0-.13,2.72,2.72,0,0,1,.91-.67c.34-.08.57-.39.92-.47.11,0,.17.08.22.16-.49.33-1,.66-1.46,1A2.77,2.77,0,0,0,60.11,77.48Z"
      transform="translate(-0.16 -0.17)"
    ></path>
    <path
      class="i"
      d="M61.93,76.07l-.2-.1c-.07-.06-.2,0-.23-.14.15-.35.25-.72.39-1.07a.14.14,0,0,1,.14,0,.64.64,0,0,0,.2.52C62.22,75.56,62,75.79,61.93,76.07Z"
      transform="translate(-0.16 -0.17)"
    ></path>
    <path class="j" d="M61.73,80.52a1.18,1.18,0,0,1-.61-1.11Z" transform="translate(-0.16 -0.17)"></path>
    <path class="k" d="M60.62,78.6c-.22-.19-.41-.38-.31-.71Z" transform="translate(-0.16 -0.17)"></path>
    <path class="l" d="M65.51,85.32Z" transform="translate(-0.16 -0.17)"></path>
    <path class="l" d="M65.45,85.77v0Z" transform="translate(-0.16 -0.17)"></path>
    <path
      class="l"
      d="M65.35,85.61l.1.16c0-.17,0-.39.06-.45A.41.41,0,0,1,65.35,85.61Z"
      transform="translate(-0.16 -0.17)"
    ></path>
    <path
      class="l"
      d="M62.65,82.53c-.32-.08-.54.13-.79.27a7.39,7.39,0,0,1-1.7.75l-2,.51a110.37,110.37,0,0,0-11.65-.79c-2.15,0-4.2,0-6.12.07a2.13,2.13,0,0,0-.16-.25c-2.58-3.51-5.14-7-7.72-10.52a2,2,0,0,1-.39-1.12c-.16-2-.36-4-.55-6q-.37-4-.76-7.94c-.2-2.13-.39-4.26-.59-6.39a14.55,14.55,0,0,1-.11-2.47,56.21,56.21,0,0,0,.5-7.34c.2.1.1.3.11.46a11.18,11.18,0,0,0,.19,1.62c.34.11.2-.17.25-.3a1.15,1.15,0,0,0,0,.19,2.78,2.78,0,0,0,.12.7c.75,3,1.51,6,2.28,9,1.17,4.64,2.32,9.29,3.48,13.93a6.65,6.65,0,0,0,.85,2c2.45,3.76,3.61,7.67,6.1,11.4.34.51,1.79.3,2.3,0,2.58-1.72,5.13-3.48,7.7-5.22a6.07,6.07,0,0,1,1.55-.72,13.65,13.65,0,0,0,2.15-.74c.23-.32.2-.55-.16-.62s-.32-.16-.27-.4c.34.17.61.51,1,.39a1.39,1.39,0,0,1,.88.08,1.15,1.15,0,0,1,1.47.58,7.53,7.53,0,0,0,.75.87c.13.15.25.36.52.3l.08,0c0-.12,0-.24,0-.35q1-3.92,1.93-7.83c.41-1.63.71-3.29,1.27-4.88a2.48,2.48,0,0,0,0-1.72c-1.19-3.34-2.42-6.68-3.64-10q-1.11-3.08-2.24-6.15c-.25,0-.34.07-.33.31a.67.67,0,0,1,0,.34,2.18,2.18,0,0,1-2.59.91c-.17-.09-.34-.19-.43.08a.34.34,0,0,0,0,.2c.65,1.48,1.22,3,2,4.43a41.17,41.17,0,0,1,2,4.67,4,4,0,0,1,.11,3,6.33,6.33,0,0,1-2,3.17s0,.11-.09.14c0-.36-.49-.63-.2-1.05a1.09,1.09,0,0,0-.26-.69c-.55-.93-1.13-1.83-1.7-2.75a2.11,2.11,0,0,1-.32-1.19c0-2.95.17-5.89.1-8.83a2,2,0,0,1,0-.35.69.69,0,0,0-.34-.7,1.28,1.28,0,0,0-.55,0,12.54,12.54,0,0,1-3.72,0c-2.13-.37-4.27-.59-6.41-.9a1.43,1.43,0,0,1-.58-.07l-.16,0a10.93,10.93,0,0,1-1.28-.17,1.86,1.86,0,0,0-.33,0c-.57-.06-1.14-.15-1.71-.2a1.71,1.71,0,0,1-.67-.14,1.87,1.87,0,0,0-.34,0c-.1,0-.17-.08-.12-.14s.14.06.22.07a.32.32,0,0,0,.14,0,.31.31,0,0,0,.23-.14c0-.23.21-.32.38-.41.94-.56,2-1,2.92-1.52A16,16,0,0,1,48,40c2.65-.51,5.27-1.16,7.9-1.76.65-.14.71-.26.49-.8-.92-2.25-1.82-4.5-2.74-6.75a14.58,14.58,0,0,0-.94-1.9A3.32,3.32,0,0,0,51,27.26c-.74-.31-1.43-.75-2.18-1.06a13.49,13.49,0,0,0-2.6-1.09,9.15,9.15,0,0,0-3.46.06c-2,.34-4,.46-5.79,1.63-1,.67-2.12,1.11-3.08,1.83-1.45,1.07-2.9,2.15-4.36,3.21a2.64,2.64,0,0,1-1.14.48,41.08,41.08,0,0,1,5.08-5c.11-.08.25-.18.2-.37a.17.17,0,0,0-.21,0,29.13,29.13,0,0,0-6,5.87.63.63,0,0,0-.14.47c.11,1.25.21,2.51.32,3.77.19,2.28.39,4.55.58,6.83.15,1.76.28,3.53.43,5.29q.28,3.31.58,6.63c.14,1.49.29,3,.44,4.47.19,1.92.43,3.84.56,5.77a31.46,31.46,0,0,1-.43,4.31c-.13,2-.37,3.95-.57,5.92-.11,1.11-.16,2.22-.35,3.31-.35,2-.78,4.06-1.17,6.09-.11.55-.19.53.33.53,1.63.36,9.37.39,18.62.29,9.73-.12,17.53.2,18.67-.93a25.46,25.46,0,0,0-2.42-3.09Z"
      transform="translate(-0.16 -0.17)"
    ></path>
    <path
      class="l"
      d="M65.45,85.8a1.48,1.48,0,0,1-.09.18S65.42,85.93,65.45,85.8Z"
      transform="translate(-0.16 -0.17)"
    ></path>
    <path
      class="m"
      d="M40.28,43.39c.06-.17.22-.21.35-.28,1.69-.86,3.38-1.74,5.09-2.59a13.14,13.14,0,0,1,3-.76c2.45-.57,4.91-1.1,7.36-1.64.37-.08.38-.24.25-.55-.93-2.27-1.83-4.56-2.78-6.82A11.07,11.07,0,0,0,52,28a1.34,1.34,0,0,0-.44-.32c-1.49-.73-3-1.48-4.46-2.16a5.43,5.43,0,0,0-2.35-.36,33.18,33.18,0,0,0-5.61.84,9.3,9.3,0,0,0-2.44,1.17c-2.59,1.26-4.73,3.18-7.06,4.82a4.07,4.07,0,0,1-1.49.55A43.43,43.43,0,0,1,33.7,27a1,1,0,0,1,.59-.46c1-.5,2.11-.94,3.15-1.45a3.34,3.34,0,0,1,1.12-.27c.58-.06,1.14-.19,1.72-.26a19.43,19.43,0,0,1,10.79,1.13A2.77,2.77,0,0,1,52.53,27c1.19,2.13,2.45,4.22,3.63,6.36.74,1.32,1.5,2.63,2.21,4a12.46,12.46,0,0,1,1.3,2.34c.11.41-.1.5-.46.48-.64,0-1.28-.08-1.91-.17a5.49,5.49,0,0,0-1.81,0c-2.88.52-5.79.9-8.66,1.48A43.15,43.15,0,0,0,42.06,43l-1.25.41C40.64,43.43,40.46,43.52,40.28,43.39Z"
      transform="translate(-0.16 -0.17)"
    ></path>
    <path
      class="n"
      d="M39.78,43.9l.2-.12a6.19,6.19,0,0,1,1.61-.68,50.23,50.23,0,0,1,9.5-2.3,38,38,0,0,1,6-.69c.87,0,1.74.14,2.62.1a.77.77,0,0,1,.48.14l.21.11a1.41,1.41,0,0,1,.13,1.64,2.88,2.88,0,0,1-1.26,1.1.83.83,0,0,1-.63.12,41.37,41.37,0,0,0-5.34,0c-1.06.06-2.12,0-3.18.12-1.3.09-2.61.16-3.92.27l-.56,0c-.67,0-1.35.08-2,.15a3.4,3.4,0,0,1-.78,0,2.09,2.09,0,0,0-.66.06,3.71,3.71,0,0,1-.67,0,1.74,1.74,0,0,0-.64.05,2.73,2.73,0,0,1-.57,0L40,44.08C39.91,44,39.75,44.08,39.78,43.9Z"
      transform="translate(-0.16 -0.17)"
    ></path>
    <path
      class="o"
      d="M60.2,40.35c-1,0-1.89-.06-2.83-.08a27.51,27.51,0,0,0-5.5.55c-1.95.36-3.9.66-5.84,1.07a40.49,40.49,0,0,0-5.57,1.77.82.82,0,0,1-.48.12c-.07-.25.08-.35.3-.39,1.56-.53,3.11-1.09,4.68-1.57a35.69,35.69,0,0,1,5.11-1.07c1.52-.24,3-.47,4.55-.75a9,9,0,0,1,3.59-.07c.39.07.8,0,1.2.08s.14-.3.19-.47.07,0,.1,0Z"
      transform="translate(-0.16 -0.17)"
    ></path>
    <path
      class="o"
      d="M59.7,39.54h-.1c-1.14-1.83-2.2-3.71-3.25-5.59-1.18-2.13-2.39-4.25-3.58-6.37a1.18,1.18,0,0,1-.24-.6,30.63,30.63,0,0,1,1.71,2.79C56,32.85,58,35.81,59.5,39,59.58,39.2,59.71,39.34,59.7,39.54Z"
      transform="translate(-0.16 -0.17)"
    ></path>
    <path
      class="p"
      d="M40.28,24.56a9.8,9.8,0,0,1-1.41.29,4.25,4.25,0,0,0-1.53.42c-.94.45-1.9.87-2.86,1.27a7.6,7.6,0,0,0-.78.46h-.2a2.33,2.33,0,0,1,.77-.54c.68-.33,1.37-.63,2-1A9.44,9.44,0,0,1,40.28,24.56Z"
      transform="translate(-0.16 -0.17)"
    ></path>
    <path
      class="q"
      d="M43.6,43.79a12.81,12.81,0,0,1,2-.19.58.58,0,0,0,.5,0,6,6,0,0,1,1.74-.17c1.42-.14,2.85-.19,4.28-.23s2.55-.14,3.84-.11a32.49,32.49,0,0,1,3.27.12l0,.08a.92.92,0,0,0,.07.52c-.09.08-.33.1-.22.26.23.34-.07.53-.21.72-.55.77-1.43.79-2.25.91-.14,0-.22-.13-.32-.22s-.18-.23-.32,0-.19,0-.29,0-.22.25-.41.18c-.86.1-1.72.2-2.59.22a20.21,20.21,0,0,1-3.29-.37L46,45l-1.48-.21c-.08-.07-.24,0-.25-.2C44.26,44.16,43.94,44,43.6,43.79Z"
      transform="translate(-0.16 -0.17)"
    ></path>
    <path
      class="r"
      d="M62.65,82.53c-1.87,1.27-4.09,1.55-6.2,2.12-1.64.45-3.28.85-4.92,1.28a1.39,1.39,0,0,1-.54,0l-3.55-.32-4.15-.39c-.57,0-1.14-.09-1.71-.11-.2,0-.35,0-.46-.23a35,35,0,0,0-3.21-4.69c-1.84-2.56-3.72-5.1-5.6-7.63A1.68,1.68,0,0,1,32,71.7c-.15-1.65-.26-3.3-.42-5-.18-1.94-.4-3.89-.59-5.84-.12-1.27-.2-2.54-.32-3.81-.15-1.61-.34-3.22-.48-4.84a20.64,20.64,0,0,1,0-5.21,35.32,35.32,0,0,0,.39-4.1c0-.52-.06-1.07-.06-1.61,0-.13,0-.27.1-.37a4.53,4.53,0,0,1,.23,1.79c.16,2.56.24,5.13.34,7.7.05,1.38,0,2.76.17,4.13.13,1.11.29,2.2.44,3.3q.45,3.3.89,6.6c.2,1.5.43,3,.61,4.5a2,2,0,0,0,.55,1c3,3.71,5.88,7.45,8.86,11.15,1,1.2,1.28,1.52,3.14,1,1-.28,2.05-.54,3.08-.79,3-.73,5.81-1.83,8.69-2.81a13,13,0,0,0,1.64-.89c.21-.11.46-.32.6.09A40.46,40.46,0,0,0,62,81.56,6.14,6.14,0,0,1,62.65,82.53Z"
      transform="translate(-0.16 -0.17)"
    ></path>
    <path
      class="n"
      d="M59.81,77.69c-.13-.18-.27-.14-.43,0-3.28,1.86-6.92,2.74-10.49,3.79-1.08.31-2.18.56-3.26.87a3.09,3.09,0,0,1-1.83,0,2.77,2.77,0,0,1-1.19-1.06c-1.78-2.21-3.52-4.45-5.28-6.67-1.28-1.62-2.54-3.25-3.85-4.85A2.63,2.63,0,0,1,33,68.23c-.3-2.1-.55-4.21-.84-6.32-.25-1.84-.55-3.67-.78-5.51a37.74,37.74,0,0,1-.34-4.11c0-2.14-.09-4.27-.21-6.4-.06-1.26-.13-2.52-.19-3.78A7.33,7.33,0,0,1,30.57,41c.37,0,.27.28.28.43.07.66.09,1.33.13,2a.31.31,0,0,1,.1.15,7,7,0,0,0,.1,1,11,11,0,0,1,0,1.15,4.45,4.45,0,0,0,.06,1.15c.06.42,0,.85,0,1.28a6.12,6.12,0,0,0,.07,1.35c.06.46,0,.92,0,1.38a9.91,9.91,0,0,0,.06,1.44,11.17,11.17,0,0,1,0,1.42,27.4,27.4,0,0,0,.42,3.5c.49,3.73,1,7.45,1.5,11.17A2.53,2.53,0,0,0,34,69.68c2.94,3.68,5.86,7.39,8.8,11.08.17.21.37.39.53.61a1.66,1.66,0,0,0,1.9.58c2.39-.63,4.83-1.1,7.16-2,1-.37,2-.71,3-1a14.91,14.91,0,0,0,4-1.76c.18-.12.36-.29.6-.14a.34.34,0,0,1,0,.1C59.74,77.32,59.83,77.52,59.81,77.69Z"
      transform="translate(-0.16 -0.17)"
    ></path>
    <path
      class="q"
      d="M31.27,49.47a3.52,3.52,0,0,1-.08-1.33c.09-.57,0-1.15,0-1.72,0,.13,0,.29-.07.42a2.89,2.89,0,0,1-.09-1.13,12.56,12.56,0,0,0,0-1.94c0-.2-.08-.46.2-.59.52,2.12,1,4.24,1.56,6.35Q35,58.29,37.25,67.05A5.73,5.73,0,0,0,38,68.82c2.49,3.75,5,7.49,7.49,11.24.23.34.35.33.68.1,1.75-1.22,3.54-2.39,5.31-3.59.32-.21.63-.43.94-.67a11.85,11.85,0,0,1,4.44-2.16,1.91,1.91,0,0,0,.79-.3,3.76,3.76,0,0,1,1.52-.51c.9-.24.87-.21,1.49.49A6.41,6.41,0,0,0,62,74.76a1.55,1.55,0,0,1-.44,1.1c-.12.33-.47.41-.71.61l-.89.61a5,5,0,0,0-1.32.72,17.71,17.71,0,0,1-3.79,1.5A83.27,83.27,0,0,1,45.62,82a2.24,2.24,0,0,1-2.86-1L34.62,70.75c-.37-.46-.72-.93-1.09-1.39a1.55,1.55,0,0,1-.21-.86c-.4-2.87-.76-5.75-1.15-8.62-.24-1.81-.52-3.61-.78-5.42a4.85,4.85,0,0,1,0-.66,4.72,4.72,0,0,0,0-1.5,4.31,4.31,0,0,1-.08-1.43,11.33,11.33,0,0,0,0-1.43s0-.1,0-.12S31.31,49.42,31.27,49.47Z"
      transform="translate(-0.16 -0.17)"
    ></path>
    <path
      class="s"
      d="M60.8,76.47a3,3,0,0,1,.71-.61c.09,0,.17,0,.22.11C61.42,76.13,61.19,76.43,60.8,76.47Z"
      transform="translate(-0.16 -0.17)"
    ></path>
    <path
      class="t"
      d="M57.68,60.18c0-.55-.39-.91-.63-1.33-.47-.84-1-1.63-1.51-2.44a1,1,0,0,1-.19-.6c0-3.09.18-6.18.11-9.27a.35.35,0,0,1,.09-.32c.26.11.29.36.36.58.93,3,1.91,5.94,2.84,8.91,0,.11.08.22.11.34.07.29.23.43.55.33a.56.56,0,0,1,.49,0c.2.22.11.47.05.71a7.62,7.62,0,0,1-1.76,3.18C57.92,60.6,57.82,60.57,57.68,60.18Z"
      transform="translate(-0.16 -0.17)"
    ></path>
    <path
      class="m"
      d="M59.91,56.44h-.15c-.29,0-.62.29-.81.11a2,2,0,0,1-.35-.87L55.66,46.5c0-.09-.07-.19-.11-.28s-.13-.4-.19-.61l.38-.29a3.3,3.3,0,0,1,.7,1.32c1,2.36,2.1,4.65,3.07,7a9.32,9.32,0,0,1,.79,2.65C60.23,56.5,60.1,56.56,59.91,56.44Z"
      transform="translate(-0.16 -0.17)"
    ></path>
    <path
      class="u"
      d="M60,46.22c.45,1.19.9,2.38,1.34,3.58q1.84,5,3.68,10A1.93,1.93,0,0,1,64.87,62a10.83,10.83,0,0,1-.47-1.39c-.83-2.63-1.68-5.25-2.51-7.87-.67-2.09-1.32-4.19-2-6.29C60,46.37,59.93,46.27,60,46.22Z"
      transform="translate(-0.16 -0.17)"
    ></path>
    <path
      class="v"
      d="M60.22,56.23A36.49,36.49,0,0,0,57.73,50c-.69-1.53-1.33-3.09-2-4.63.19-.23.21.06.32.1.74,1.65,1.41,3.33,2.21,5A24.34,24.34,0,0,1,60.47,56a3.41,3.41,0,0,1-.27,1.81c-.1,0-.14-.05-.18-.13a2.55,2.55,0,0,1,.17-1.16C60.22,56.45,60.3,56.35,60.22,56.23Z"
      transform="translate(-0.16 -0.17)"
    ></path>
    <path
      class="w"
      d="M61.94,64.12c-.25.33-.66.37-1,.5-1.75.69-3.51,1.36-5.27,2-.2-.19,0-.23.11-.29.3-.21.7-.23,1-.5a.76.76,0,0,1,.2-.2,4.35,4.35,0,0,1,.92-.38A1.8,1.8,0,0,0,59,64.73a18.73,18.73,0,0,1,2-1,.73.73,0,0,1,.89.23A.14.14,0,0,1,61.94,64.12Z"
      transform="translate(-0.16 -0.17)"
    ></path>
    <path
      class="o"
      d="M60.22,56.23c.23.31,0,.61,0,.92s-.08.39-.08.59a5.59,5.59,0,0,1-1.64,2.81.87.87,0,0,0-.37.45c0,.09,0,.38-.18.14a1.38,1.38,0,0,1-.22-.49c0-.07,0-.19-.1-.19s-.24.17-.24,0,.17-.23.33-.24.09.42.33.13a7.64,7.64,0,0,0,1.89-3.57,1.51,1.51,0,0,0,0-.3C60.06,56.44,60.2,56.43,60.22,56.23Z"
      transform="translate(-0.16 -0.17)"
    ></path>
    <path
      class="q"
      d="M43.6,43.79c.53,0,.76.27.78.82,0,.07.1.13.15.19a.83.83,0,0,1-.51-.1s0-.11-.07-.12,0,.08,0,.12a3.86,3.86,0,0,1-1.31-.2c0-.07.08-.09.13-.12l.07,0a.75.75,0,0,0-.13.06c-.13,0-.3-.14-.38.09l-1.82-.2c-.07-.07-.19-.11-.08-.24s.46,0,.66-.09.3,0,.43-.07h.7c.19-.11.42,0,.61-.09Z"
      transform="translate(-0.16 -0.17)"
    ></path>
    <path
      class="o"
      d="M59.2,72.93a5.45,5.45,0,0,1-1.52.51c.13-.12.17-.18,0-.33s-.36,0-.49.14c-.2-.27.33-.7-.45-.73a.69.69,0,0,1,.86.07.81.81,0,0,0,.88.18A.66.66,0,0,1,59.2,72.93Z"
      transform="translate(-0.16 -0.17)"
    ></path>
    <path
      class="x"
      d="M58.09,61c-.37-.18,0-.28.07-.31a5.41,5.41,0,0,0,1.61-2.28,2.78,2.78,0,0,1,.33-.67l.1.11a6.3,6.3,0,0,1-1.7,2.89C58.37,60.85,58.27,61,58.09,61Z"
      transform="translate(-0.16 -0.17)"
    ></path>
    <path
      class="y"
      d="M56.87,65.94c-.21.27-.56.27-.83.43s-.35.07-.38.29A1.33,1.33,0,0,1,55,67c-.15,0-.12-.06-.08-.13a1.89,1.89,0,0,1,.31-.25,1.65,1.65,0,0,1,.46-.32c.38-.11.69-.39,1.1-.4Z"
      transform="translate(-0.16 -0.17)"
    ></path>
    <path
      class="z"
      d="M31.28,43.18c-.22.36-.06.75-.1,1.11a5.21,5.21,0,0,1-.1,1.42c0-.4,0-.8,0-1.2s0-.69-.09-1v-.11c.17-.17.05-.39.12-.6A.66.66,0,0,1,31.28,43.18Z"
      transform="translate(-0.16 -0.17)"
    ></path>
    <path
      class="aa"
      d="M55.26,66.64c0,.17-.31.12-.31.32-.18.22-.46.2-.7.34,0-.23.36-.19.19-.43a4.16,4.16,0,0,1,.47-.24,1.22,1.22,0,0,1,.24-.1C55.23,66.53,55.28,66.55,55.26,66.64Z"
      transform="translate(-0.16 -0.17)"
    ></path>
    <path
      class="o"
      d="M39.47,44.09c-.08,0-.26,0-.22,0,.21-.14-.17-.38.08-.45a.27.27,0,0,1,.34.26C39.74,44.09,39.52,44,39.47,44.09Z"
      transform="translate(-0.16 -0.17)"
    ></path>
    <path
      class="q"
      d="M42.3,44.5c0-.1-.15-.22,0-.3s.26.18.43.2l-.1.1Z"
      transform="translate(-0.16 -0.17)"
    ></path>
    <path
      class="ab"
      d="M40.38,44.1l.1.2a1,1,0,0,1-.6-.2A.19.19,0,0,1,40,44h.3A.17.17,0,0,1,40.38,44.1Z"
      transform="translate(-0.16 -0.17)"
    ></path>
    <path
      class="ac"
      d="M59.8,45.92a.85.85,0,0,1-.17-.59.89.89,0,0,1,.27.59S59.84,46,59.8,45.92Z"
      transform="translate(-0.16 -0.17)"
    ></path>
    <path
      class="q"
      d="M43.92,44.7c0-.08-.25-.13,0-.24s.13-.15.2-.07,0,.21-.07.31Z"
      transform="translate(-0.16 -0.17)"
    ></path>
    <path class="m" d="M59.8,45.92h.1l.11.3a.2.2,0,0,1-.1.2Z" transform="translate(-0.16 -0.17)"></path>
    <path
      class="ad"
      d="M40,44l-.1.1h-.41l.2-.2h.11C39.82,44,39.9,44,40,44Z"
      transform="translate(-0.16 -0.17)"
    ></path>
    <path
      class="o"
      d="M40.38,44.1l-.1-.1h.6a.15.15,0,0,1,.21,0C40.87,44.19,40.62,44.06,40.38,44.1Z"
      transform="translate(-0.16 -0.17)"
    ></path>
    <path
      class="q"
      d="M42.8,43.8c-.18.17-.4.06-.61.09C42.38,43.74,42.6,43.81,42.8,43.8Z"
      transform="translate(-0.16 -0.17)"
    ></path>
    <path
      class="q"
      d="M41.09,44h-.21c.18-.16.4-.07.61-.09C41.38,44,41.22,44,41.09,44Z"
      transform="translate(-0.16 -0.17)"
    ></path>
    <path class="t" d="M46.15,43.59a.34.34,0,0,1-.5,0Z" transform="translate(-0.16 -0.17)"></path>
    <path
      class="p"
      d="M31.17,46.84v-.59a4.82,4.82,0,0,1,0,1.89C31.18,47.7,31.18,47.27,31.17,46.84Z"
      transform="translate(-0.16 -0.17)"
    ></path>
    <path
      class="ae"
      d="M31.27,49.47v-.39a4.16,4.16,0,0,1,0,1.79C31.28,50.4,31.28,49.93,31.27,49.47Z"
      transform="translate(-0.16 -0.17)"
    ></path>
    <path
      class="ae"
      d="M31.37,52.3a2.4,2.4,0,0,1,0,1.5C31.38,53.3,31.38,52.8,31.37,52.3Z"
      transform="translate(-0.16 -0.17)"
    ></path>
    <path
      class="q"
      d="M31,43.49c.19.33.06.68.09,1A2.21,2.21,0,0,1,31,43.49Z"
      transform="translate(-0.16 -0.17)"
    ></path>
    <path
      class="y"
      d="M57.89,65.35a5.23,5.23,0,0,1,1.21-.53A1.37,1.37,0,0,1,57.89,65.35Z"
      transform="translate(-0.16 -0.17)"
    ></path>
    <path
      class="q"
      d="M42.8,44.13c.12.09.2.16.13.27a.1.1,0,0,1-.17,0C42.65,44.3,42.87,44.24,42.8,44.13Z"
      transform="translate(-0.16 -0.17)"
    ></path>
    <path
      class="x"
      d="M61.59,63.82a.49.49,0,0,0-.47,0L56,66.23a1.32,1.32,0,0,0-.25.16,14.86,14.86,0,0,0-3.62,2,7,7,0,0,1-1.31.77c0-.27.21-.31.33-.41a22.49,22.49,0,0,1,4.24-2.41c1.78-.86,3.57-1.71,5.34-2.58a1.12,1.12,0,0,1,1.08-.09c.27.14.3.08.41-.49.09.33.15.61,0,.8S61.8,63.86,61.59,63.82Z"
      transform="translate(-0.16 -0.17)"
    ></path>
    <path class="af" d="M65.23,86.24" transform="translate(-0.16 -0.17)"></path>
    <path
      class="af"
      d="M65.66,85.94c0,.06-30.85.69-36.91.41-.95,0-1.32.14-1.14-.8.44-2.24.93-4.48,1.28-6.74.27-1.8.34-3.63.54-5.44.24-2.26.36-4.53.73-6.78a11,11,0,0,0-.2-2.67c-.34-3.66-.7-7.3-1-11-.3-3.37-.57-6.75-.84-10.12-.26-3.1-.49-6.19-.75-9.28a1,1,0,0,1,.25-.77,27.49,27.49,0,0,1,6.32-6.19,11.52,11.52,0,0,1,5.3-2.11,31.49,31.49,0,0,1,7.45-.27,21.5,21.5,0,0,1,5.09,1.53A2.71,2.71,0,0,1,52.93,27c2.41,4.25,5.09,8.34,7.15,12.78a2.18,2.18,0,0,0,.46.58,1,1,0,0,1,.17,1.47,13.89,13.89,0,0,1-.93,1.34.75.75,0,0,0-.11.81q2.76,7.68,5.49,15.37a4.2,4.2,0,0,1,0,2.8c-.5,1.54-.82,3.14-1.2,4.71-.67,2.77-1.32,5.54-2,8.31a1.22,1.22,0,0,1-.45.74c-.41.33-.78.71-1.19,1s-.27.34-.13.64a31.21,31.21,0,0,0,4.15,6.3c.41.52,1.36,1.61,1.27,2"
      transform="translate(-0.16 -0.17)"
    ></path>
  </g>
</svg>
